<svg width="85" height="55" viewBox="0 0 85 55" xmlns="http://www.w3.org/2000/svg">
<g filter="url(#filter0_f)">
<path d="M26.604 25.7162C17.9522 24.0485 16.9158 20.5956 19.448 18.0352L36.5407 20.9009C46.406 20.5016 66.4424 20.9056 67.6663 25.7162C69.1962 31.7294 67.834 30.7202 58.2062 32.5289C48.5784 34.3375 35.2559 27.3839 26.604 25.7162Z" fill="#434751" fill-opacity="0.16"/>
</g>
<g opacity="0.5" filter="url(#filter1_f)">
<path d="M48.8095 34.2273L44.9539 32.4332C39.5021 30.9926 28.0943 27.1542 26.0777 26.6378L20.0381 25.6254L16 21.5759L26.0777 18.0078C26.0777 18.0078 28.9165 15.4443 31.6474 14.9953C33.2979 14.434 29.4087 11.3283 38.1716 10.9634C46.9345 10.5986 52.6664 15.959 55.0672 18.0078C61.6693 19.0181 65.6717 21.6843 67.7123 24.6311C68.8318 26.2476 69.5729 29.2057 68.4215 30.4125C66.2608 34.6784 57.9781 35.1836 56.4776 35.2397C55.2772 35.2846 49.2397 34.4332 48.8095 34.2273Z" fill="#2D2E2E"/>
</g>
<path d="M26.4168 23.6343C26.2085 24.8869 22.7984 25.6778 21.8925 25.2149C20.9866 24.752 22.9278 23.2106 23.1362 21.958C23.3445 20.7053 24.2478 20.0651 25.1538 20.528C26.0597 20.9909 26.6252 22.3816 26.4168 23.6343Z" fill="#1F222B"/>
<path d="M53.9436 31.7452C53.6616 33.3005 51.0371 34.4535 49.5201 33.7424C48.5269 33.2768 50.7551 31.176 51.0371 29.6207C51.3191 28.0655 52.3529 27.1821 53.3462 27.6477C54.3394 28.1133 54.2256 30.19 53.9436 31.7452Z" fill="#1F222B"/>
<path d="M54.4106 13.8068C55.3099 13.1925 55.035 12.2558 54.9277 11.9659C54.6306 11.1633 53.6256 12.2694 53.2754 12.5538C52.9252 12.8382 52.3519 13.3618 52.6262 14.038C52.9005 14.7142 53.5113 14.4212 54.4106 13.8068Z" fill="#20232C"/>
<g filter="url(#filter2_d)">
<path d="M45.2505 28.7096C45.2032 26.9686 45.8801 24.0842 48.8311 24.0842C50.9814 24.0842 53.5931 27.04 53.5135 30.8439C53.4371 27.2049 50.917 24.4234 48.8311 24.4234C46.0647 24.4234 45.2968 26.9582 45.2505 28.7096Z" fill="#FDFDFD"/>
<path d="M45.2505 28.7096C45.2032 26.9686 45.8801 24.0842 48.8311 24.0842C50.9814 24.0842 53.5931 27.04 53.5135 30.8439C53.4371 27.2049 50.917 24.4234 48.8311 24.4234C46.0647 24.4234 45.2968 26.9582 45.2505 28.7096Z" fill="url(#paint0_linear)"/>
<path d="M45.2535 29.1371C45.2896 29.2292 45.3624 29.3754 45.3741 29.4836C40.2531 28.0324 29.4425 25.0001 27.5482 24.4799C25.2131 23.8387 25.2082 23.8298 24.9382 23.3417C24.9344 23.3349 24.9305 23.3279 24.9266 23.3209C24.8984 22.5011 23.9682 18.2041 21.7413 17.9497C19.2606 17.6953 18.9505 20.2961 18.9505 21.8226C18.264 21.4783 17.8999 20.344 17.731 19.0239C17.6357 18.2794 17.6025 17.4758 17.6085 16.7217C17.6137 17.3742 17.6499 18.0509 17.731 18.6847C17.8999 20.0047 18.264 21.1391 18.9505 21.4834C18.9505 19.9568 19.2606 17.356 21.7413 17.6105C23.9682 17.8649 24.8984 22.1618 24.9266 22.9816C24.9305 22.9887 24.9344 22.9956 24.9382 23.0025C25.2082 23.4906 25.2131 23.4995 27.5482 24.1407C29.4394 24.66 40.1224 27.6831 45.2535 29.1371Z" fill="#FDFDFD"/>
<path d="M45.2535 29.1371C45.2896 29.2292 45.3624 29.3754 45.3741 29.4836C40.2531 28.0324 29.4425 25.0001 27.5482 24.4799C25.2131 23.8387 25.2082 23.8298 24.9382 23.3417C24.9344 23.3349 24.9305 23.3279 24.9266 23.3209C24.8984 22.5011 23.9682 18.2041 21.7413 17.9497C19.2606 17.6953 18.9505 20.2961 18.9505 21.8226C18.264 21.4783 17.8999 20.344 17.731 19.0239C17.6357 18.2794 17.6025 17.4758 17.6085 16.7217C17.6137 17.3742 17.6499 18.0509 17.731 18.6847C17.8999 20.0047 18.264 21.1391 18.9505 21.4834C18.9505 19.9568 19.2606 17.356 21.7413 17.6105C23.9682 17.8649 24.8984 22.1618 24.9266 22.9816C24.9305 22.9887 24.9344 22.9956 24.9382 23.0025C25.2082 23.4906 25.2131 23.4995 27.5482 24.1407C29.4394 24.66 40.1224 27.6831 45.2535 29.1371Z" fill="url(#paint1_linear)"/>
<path d="M67.8637 25.4575C67.8407 26.1242 67.6772 26.7111 67.3231 27.109C65.2935 31.4059 57.5133 31.9148 56.1039 31.9713C54.997 32.0157 53.9263 31.6279 53.5052 31.4175C53.4998 31.5261 53.4922 31.6353 53.4823 31.7452C53.8863 31.9525 54.9763 32.3558 56.1039 32.3105C57.5133 32.254 65.2935 31.7452 67.3231 27.4482C67.7361 26.984 67.8899 26.2627 67.8637 25.4575Z" fill="#FDFDFD"/>
<path d="M67.8637 25.4575C67.8407 26.1242 67.6772 26.7111 67.3231 27.109C65.2935 31.4059 57.5133 31.9148 56.1039 31.9713C54.997 32.0157 53.9263 31.6279 53.5052 31.4175C53.4998 31.5261 53.4922 31.6353 53.4823 31.7452C53.8863 31.9525 54.9763 32.3558 56.1039 32.3105C57.5133 32.254 65.2935 31.7452 67.3231 27.4482C67.7361 26.984 67.8899 26.2627 67.8637 25.4575Z" fill="url(#paint2_linear)"/>
</g>
<path d="M48.8311 24.0842C45.6175 24.0842 45.1007 27.5048 45.2792 29.1444C40.1582 27.6933 29.4425 24.6609 27.5482 24.1408C25.1803 23.4906 25.2085 23.4906 24.9266 22.9817C24.8984 22.1619 23.9682 17.865 21.7413 17.6105C19.2606 17.3561 18.9505 19.9569 18.9505 21.4834C18.264 21.1392 17.8999 20.0048 17.731 18.6848C17.456 16.5361 17.698 13.8955 17.9075 13.3701C20.2472 10.6563 24.0913 10.2322 26.6565 9.77991C28.2069 9.21452 30.6772 7.88586 38.9085 7.51836C47.1397 7.15086 52.5238 12.5503 54.779 14.614C60.9806 15.6317 64.7401 18.3173 66.657 21.2856C67.7085 22.9138 68.4047 25.8935 67.3232 27.109C65.2935 31.406 57.5133 31.9148 56.1039 31.9714C54.9763 32.0166 53.8863 31.6133 53.4823 31.406C53.8487 27.3352 51.0862 24.0842 48.8311 24.0842Z" fill="#FDFDFD"/>
<path d="M48.8311 24.0842C45.6175 24.0842 45.1007 27.5048 45.2792 29.1444C40.1582 27.6933 29.4425 24.6609 27.5482 24.1408C25.1803 23.4906 25.2085 23.4906 24.9266 22.9817C24.8984 22.1619 23.9682 17.865 21.7413 17.6105C19.2606 17.3561 18.9505 19.9569 18.9505 21.4834C18.264 21.1392 17.8999 20.0048 17.731 18.6848C17.456 16.5361 17.698 13.8955 17.9075 13.3701C20.2472 10.6563 24.0913 10.2322 26.6565 9.77991C28.2069 9.21452 30.6772 7.88586 38.9085 7.51836C47.1397 7.15086 52.5238 12.5503 54.779 14.614C60.9806 15.6317 64.7401 18.3173 66.657 21.2856C67.7085 22.9138 68.4047 25.8935 67.3232 27.109C65.2935 31.406 57.5133 31.9148 56.1039 31.9714C54.9763 32.0166 53.8863 31.6133 53.4823 31.406C53.8487 27.3352 51.0862 24.0842 48.8311 24.0842Z" fill="url(#paint3_linear)"/>
<path d="M48.8311 24.0842C45.6175 24.0842 45.1007 27.5048 45.2792 29.1444C40.1582 27.6933 29.4425 24.6609 27.5482 24.1408C25.1803 23.4906 25.2085 23.4906 24.9266 22.9817C24.8984 22.1619 23.9682 17.865 21.7413 17.6105C19.2606 17.3561 18.9505 19.9569 18.9505 21.4834C18.264 21.1392 17.8999 20.0048 17.731 18.6848C17.456 16.5361 17.698 13.8955 17.9075 13.3701C20.2472 10.6563 24.0913 10.2605 26.6565 9.80818C30.3493 8.50779 30.6772 7.88586 38.9085 7.51836C47.1397 7.15086 52.5238 12.5503 54.779 14.614C60.9806 15.6317 64.7401 18.3173 66.657 21.2856C67.7085 22.9138 68.4047 25.8935 67.3232 27.109C65.2935 31.406 57.5133 31.9148 56.1039 31.9714C54.9763 32.0166 53.8863 31.6133 53.4823 31.406C53.8487 27.3352 51.0862 24.0842 48.8311 24.0842Z" fill="url(#paint4_linear)"/>
<path d="M54.187 14.783C52.8565 16.1852 46.8766 17.4403 43.9261 17.9492C41.8965 14.9809 40.177 13.4826 38.4856 12.2388C38.4856 11.3907 45.6175 8.93124 47.1397 9.60971C48.6619 10.2882 51.0298 12.1257 54.187 14.783Z" fill="url(#paint5_linear)"/>
<path d="M32.8477 15.6307C35.0352 16.1056 39.9044 17.2044 42.0655 17.6944C36.625 10.3726 31.9174 10.7684 29.4086 10.7118C27.4015 10.6666 24.156 11.8426 22.7841 12.4363L24.7292 12.832C25.1614 13.0488 26.1725 13.567 26.7588 13.9063C27.4917 14.3303 30.1133 15.0371 32.8477 15.6307Z" fill="#1F222B"/>
<path d="M32.8477 15.6307C35.0352 16.1056 39.9044 17.2044 42.0655 17.6944C36.625 10.3726 31.9174 10.7684 29.4086 10.7118C27.4015 10.6666 24.156 11.8426 22.7841 12.4363L24.7292 12.832C25.1614 13.0488 26.1725 13.567 26.7588 13.9063C27.4917 14.3303 30.1133 15.0371 32.8477 15.6307Z" fill="url(#paint6_linear)"/>
<path d="M27.6609 10.1183C27.052 10.2087 24.7011 11.136 23.8554 11.5035C25.3776 10.5706 26.1773 10.1183 27.474 9.46807C31.8151 7.88498 32.2661 7.91325 35.0287 7.80017C31.7587 8.03552 28.4502 9.55288 27.6609 10.1183Z" fill="#1F222B"/>
<path d="M24.8139 15.8011L23.2353 15.3772L23.0661 15.9707C23.3198 16.0272 23.9795 16.1855 24.5883 16.3663C25.1296 16.2533 24.9642 15.9424 24.8139 15.8011Z" fill="#1F222B"/>
<path d="M34.3133 18.0626L32.3965 17.6387V18.2887C32.7442 18.3641 33.5635 18.5374 34.0596 18.6279C34.4656 18.5826 34.3979 18.2322 34.3133 18.0626Z" fill="#1F222B"/>
<ellipse rx="3.32138" ry="4.14566" transform="matrix(0.954405 0.449542 -0.0267868 0.976707 21.6324 21.0608)" fill="#1F222B"/>
<path fill-rule="evenodd" clip-rule="evenodd" d="M23.4359 21.9153C23.3883 23.6806 22.2925 24.0573 21.5614 23.7121C20.8303 23.3669 19.7822 21.9782 19.8299 20.2128C19.8776 18.4475 20.9733 18.0709 21.7044 18.416C22.4356 18.7612 23.4836 20.15 23.4359 21.9153Z" fill="url(#paint7_radial)"/>
<ellipse rx="4.42231" ry="5.16931" transform="matrix(0.97006 0.419163 -0.0290721 0.972501 49.2408 28.6187)" fill="#1F222B"/>
<path fill-rule="evenodd" clip-rule="evenodd" d="M51.6819 29.6805C51.6175 31.8722 50.1346 32.3398 49.1452 31.9111C48.1557 31.4825 46.7373 29.758 46.8017 27.5663C46.8661 25.3745 48.3489 24.907 49.3384 25.3356C50.3278 25.7643 51.7463 27.4887 51.6819 29.6805Z" fill="url(#paint8_radial)"/>
<path fill-rule="evenodd" clip-rule="evenodd" d="M40.0507 18.4288C39.8605 18.7325 39.5094 18.9732 38.8631 18.9181C37.5382 18.8051 36.6926 18.6072 36.6644 17.7311C36.6362 16.8551 37.5382 16.7985 38.0738 16.7985C38.155 16.7985 38.2621 16.792 38.3854 16.7846C39.0754 16.7427 40.2726 16.6701 40.2726 17.5333C40.2726 17.6349 40.2661 17.7948 40.2288 17.9707L40.8359 18.1398L40.4976 18.7126L40.0507 18.4288Z" fill="#1F222B"/>
<g filter="url(#filter3_f)">
<path fill-rule="evenodd" clip-rule="evenodd" d="M40.0513 18.6279C39.8613 18.4213 39.5101 18.2574 38.8631 18.2949C37.5382 18.3716 36.6926 18.506 36.6644 19.1011C36.6362 19.6962 37.5382 19.7346 38.0738 19.7346C38.155 19.7346 38.2621 19.739 38.3854 19.7441C39.0754 19.7725 40.2726 19.8218 40.2726 19.2355C40.2726 19.1665 40.2661 19.058 40.2288 18.9387L40.8356 18.8238L40.4979 18.4353L40.0513 18.6279Z" fill="#1F222B" fill-opacity="0.25"/>
</g>
<path d="M55.7756 24.6213C56.9189 24.6213 62.102 25.1586 58.9388 26.809C55.7756 28.4595 52.0026 24.6213 55.7756 24.6213Z" fill="white"/>
<path d="M67.4459 22.9531C67.0838 23.2655 66.7796 23.4217 66.2039 23.4802C63.8472 23.7195 65.2993 21.8551 66.3186 20.7767C66.3186 20.7767 66.995 21.5681 67.4459 22.9531Z" fill="white"/>
<g filter="url(#filter4_f)">
<path d="M54.5918 29.8794C57.3355 30.2846 63.742 29.9925 67.4179 25.5824" stroke="#8697A4" stroke-width="0.25"/>
</g>
<g filter="url(#filter5_f)">
<path d="M25.5906 21.0697L44.4491 25.9321" stroke="#8697A4" stroke-width="0.25"/>
</g>
<g filter="url(#filter6_f)">
<path d="M64.962 21.0697C61.9335 17.5263 54.362 15.5015 54.362 15.5015" stroke="#E3E8EC"/>
</g>
<g filter="url(#filter7_f)">
<path d="M25.6699 22.5294L44.5284 27.3918" stroke="#8697A4" stroke-width="0.25"/>
</g>
<g filter="url(#filter8_f)">
<path d="M54.479 28.7486C57.2227 29.1538 63.6292 28.8617 67.3051 24.4517" stroke="#8697A4" stroke-width="0.25"/>
</g>
<g filter="url(#filter9_d)">
<path d="M18.8506 14.8276C19.1509 14.3563 18.118 14.3992 17.6732 14.3992C17.3854 14.3992 17.3259 14.6511 17.3259 14.9705C17.3259 15.3418 17.3592 15.656 17.5685 15.7417C17.7778 15.8274 18.4319 15.4846 18.8506 14.8276Z" fill="url(#paint9_radial)"/>
</g>
<defs>
<filter id="filter0_f" x="12.2417" y="12.0352" width="61.9572" height="26.7914" filterUnits="userSpaceOnUse" color-interpolation-filters="sRGB">
<feFlood flood-opacity="0" result="BackgroundImageFix"/>
<feBlend mode="normal" in="SourceGraphic" in2="BackgroundImageFix" result="shape"/>
<feGaussianBlur stdDeviation="3" result="effect1_foregroundBlur"/>
</filter>
<filter id="filter1_f" x="12" y="6.94568" width="61" height="32.2958" filterUnits="userSpaceOnUse" color-interpolation-filters="sRGB">
<feFlood flood-opacity="0" result="BackgroundImageFix"/>
<feBlend mode="normal" in="SourceGraphic" in2="BackgroundImageFix" result="shape"/>
<feGaussianBlur stdDeviation="2" result="effect1_foregroundBlur"/>
</filter>
<filter id="filter2_d" x="0.607819" y="4.72168" width="84.2587" height="49.5924" filterUnits="userSpaceOnUse" color-interpolation-filters="sRGB">
<feFlood flood-opacity="0" result="BackgroundImageFix"/>
<feColorMatrix in="SourceAlpha" type="matrix" values="0 0 0 0 0 0 0 0 0 0 0 0 0 0 0 0 0 0 127 0" result="hardAlpha"/>
<feOffset dy="5"/>
<feGaussianBlur stdDeviation="8.5"/>
<feColorMatrix type="matrix" values="0 0 0 0 0.0784314 0 0 0 0 0.0784314 0 0 0 0 0.0784314 0 0 0 1 0"/>
<feBlend mode="normal" in2="BackgroundImageFix" result="effect1_dropShadow"/>
<feBlend mode="normal" in="SourceGraphic" in2="effect1_dropShadow" result="shape"/>
</filter>
<filter id="filter3_f" x="35.6637" y="17.2895" width="6.17189" height="3.46957" filterUnits="userSpaceOnUse" color-interpolation-filters="sRGB">
<feFlood flood-opacity="0" result="BackgroundImageFix"/>
<feBlend mode="normal" in="SourceGraphic" in2="BackgroundImageFix" result="shape"/>
<feGaussianBlur stdDeviation="0.5" result="effect1_foregroundBlur"/>
</filter>
<filter id="filter4_f" x="53.5735" y="24.5024" width="14.9403" height="6.63412" filterUnits="userSpaceOnUse" color-interpolation-filters="sRGB">
<feFlood flood-opacity="0" result="BackgroundImageFix"/>
<feBlend mode="normal" in="SourceGraphic" in2="BackgroundImageFix" result="shape"/>
<feGaussianBlur stdDeviation="0.5" result="effect1_foregroundBlur"/>
</filter>
<filter id="filter5_f" x="24.5594" y="19.9487" width="20.921" height="7.10442" filterUnits="userSpaceOnUse" color-interpolation-filters="sRGB">
<feFlood flood-opacity="0" result="BackgroundImageFix"/>
<feBlend mode="normal" in="SourceGraphic" in2="BackgroundImageFix" result="shape"/>
<feGaussianBlur stdDeviation="0.5" result="effect1_foregroundBlur"/>
</filter>
<filter id="filter6_f" x="52.2328" y="13.0185" width="15.1093" height="10.376" filterUnits="userSpaceOnUse" color-interpolation-filters="sRGB">
<feFlood flood-opacity="0" result="BackgroundImageFix"/>
<feBlend mode="normal" in="SourceGraphic" in2="BackgroundImageFix" result="shape"/>
<feGaussianBlur stdDeviation="1" result="effect1_foregroundBlur"/>
</filter>
<filter id="filter7_f" x="24.6387" y="21.4084" width="20.921" height="7.10442" filterUnits="userSpaceOnUse" color-interpolation-filters="sRGB">
<feFlood flood-opacity="0" result="BackgroundImageFix"/>
<feBlend mode="normal" in="SourceGraphic" in2="BackgroundImageFix" result="shape"/>
<feGaussianBlur stdDeviation="0.5" result="effect1_foregroundBlur"/>
</filter>
<filter id="filter8_f" x="53.4607" y="23.3716" width="14.9403" height="6.63412" filterUnits="userSpaceOnUse" color-interpolation-filters="sRGB">
<feFlood flood-opacity="0" result="BackgroundImageFix"/>
<feBlend mode="normal" in="SourceGraphic" in2="BackgroundImageFix" result="shape"/>
<feGaussianBlur stdDeviation="0.5" result="effect1_foregroundBlur"/>
</filter>
<filter id="filter9_d" x="9.32587" y="8.39816" width="13.5786" height="13.3565" filterUnits="userSpaceOnUse" color-interpolation-filters="sRGB">
<feFlood flood-opacity="0" result="BackgroundImageFix"/>
<feColorMatrix in="SourceAlpha" type="matrix" values="0 0 0 0 0 0 0 0 0 0 0 0 0 0 0 0 0 0 127 0" result="hardAlpha"/>
<feOffset dx="-2"/>
<feGaussianBlur stdDeviation="3"/>
<feColorMatrix type="matrix" values="0 0 0 0 1 0 0 0 0 0.713726 0 0 0 0 0.788235 0 0 0 0.7 0"/>
<feBlend mode="normal" in2="BackgroundImageFix" result="effect1_dropShadow"/>
<feBlend mode="normal" in="SourceGraphic" in2="effect1_dropShadow" result="shape"/>
</filter>
<linearGradient id="paint0_linear" x1="45.9097" y1="25.9499" x2="47.4114" y2="21.3728" gradientUnits="userSpaceOnUse">
<stop stop-color="#2D2D2F"/>
<stop offset="1" stop-color="#8B8B96"/>
</linearGradient>
<linearGradient id="paint1_linear" x1="45.9097" y1="25.9499" x2="47.4114" y2="21.3728" gradientUnits="userSpaceOnUse">
<stop stop-color="#2D2D2F"/>
<stop offset="1" stop-color="#8B8B96"/>
</linearGradient>
<linearGradient id="paint2_linear" x1="45.9097" y1="25.9499" x2="47.4114" y2="21.3728" gradientUnits="userSpaceOnUse">
<stop stop-color="#2D2D2F"/>
<stop offset="1" stop-color="#8B8B96"/>
</linearGradient>
<linearGradient id="paint3_linear" x1="45.9097" y1="25.6108" x2="47.4115" y2="21.0336" gradientUnits="userSpaceOnUse">
<stop stop-color="#CBCBCF"/>
<stop offset="1" stop-color="white"/>
</linearGradient>
<linearGradient id="paint4_linear" x1="51.4066" y1="31.9714" x2="47.3837" y2="21.0385" gradientUnits="userSpaceOnUse">
<stop stop-color="#D3D3DA"/>
<stop offset="1" stop-color="white" stop-opacity="0"/>
</linearGradient>
<linearGradient id="paint5_linear" x1="44.0774" y1="11.8251" x2="49.949" y2="15.1748" gradientUnits="userSpaceOnUse">
<stop stop-color="#2A2D36"/>
<stop offset="1" stop-color="#494D58"/>
</linearGradient>
<linearGradient id="paint6_linear" x1="34.2675" y1="12.0792" x2="38.3163" y2="19.5892" gradientUnits="userSpaceOnUse">
<stop stop-color="#2B2E37"/>
<stop offset="1" stop-color="#4A4E59"/>
</linearGradient>
<radialGradient id="paint7_radial" cx="0" cy="0" r="1" gradientUnits="userSpaceOnUse" gradientTransform="translate(21.4695 21.0695) rotate(75.1084) scale(3.07136 1.90024)">
<stop stop-color="white"/>
<stop offset="1" stop-color="#DDDDE4"/>
</radialGradient>
<radialGradient id="paint8_radial" cx="0" cy="0" r="1" gradientUnits="userSpaceOnUse" gradientTransform="translate(49.2418 28.6234) rotate(90.1709) scale(2.00149 1.34426)">
<stop stop-color="#FCFCFD"/>
<stop offset="1" stop-color="#E6E6EC"/>
</radialGradient>
<radialGradient id="paint9_radial" cx="0" cy="0" r="1" gradientUnits="userSpaceOnUse" gradientTransform="translate(17.3259 14.5395) rotate(25.2573) scale(1.05974 1.23837)">
<stop stop-color="#EB4A5C"/>
<stop offset="1" stop-color="#FF001C"/>
</radialGradient>
</defs>
</svg>