<svg width="73" height="47" viewBox="0 0 73 47" xmlns="http://www.w3.org/2000/svg">
<g filter="url(#filter0_f)">
<path d="M53.3719 32.4174C53.4863 34.7045 43.4461 43.5522 36.0065 41.7628C28.5668 39.9735 23.8963 31.5265 19.3616 27.9662C15.0731 20.7093 26.4329 17.7212 33.8725 19.5105C41.3121 21.2999 53.2576 30.1303 53.3719 32.4174Z" fill="black" fill-opacity="0.2"/>
</g>
<path d="M30.722 22.4696L20.1792 27.2497L38.8295 40.9546L51.6228 32.0903C45.9403 29.0548 34.3411 22.881 33.404 22.4696C32.4669 22.0581 31.2255 22.2981 30.722 22.4696Z" fill="#184B1E"/>
<path fill-rule="evenodd" clip-rule="evenodd" d="M51.6531 32.1218L55.6606 17.2672C56.5035 16.5734 55.5883 16.2248 55.1979 16.0761C55.1457 16.0562 55.1029 16.0399 55.0749 16.0268C51.2979 14.975 45.3113 13.3053 40.6035 11.9923L40.6031 11.9922C36.9603 10.9762 34.0833 10.1738 33.5884 10.0366C32.454 9.72191 31.5847 9.90545 31.3072 10.0366L15.9246 13.788L20.2712 27.4325C23.323 26.0811 29.6426 23.2453 30.5057 22.7129C31.3689 22.1804 32.715 22.491 33.2802 22.7129L51.6531 32.1218ZM27.3024 13.3532C26.9018 13.4368 26.6306 13.8172 26.6818 14.2236L27.7334 22.563C27.7899 23.0106 28.2123 23.3124 28.6535 23.2203C29.0542 23.1367 29.3254 22.7564 29.2742 22.35L28.2226 14.0105C28.1661 13.5629 27.7437 13.2612 27.3024 13.3532ZM22.2988 14.4321C21.877 14.5201 21.6022 14.9342 21.6851 15.357L23.4807 24.5168C23.5636 24.9396 23.9727 25.211 24.3945 25.123C24.8163 25.035 25.0911 24.6209 25.0082 24.1981L23.2126 15.0384C23.1297 14.6156 22.7205 14.3441 22.2988 14.4321ZM35.6238 13.2637C35.2065 13.1187 34.8562 13.359 34.8413 13.8005L34.5706 21.8521C34.5558 22.2936 34.882 22.769 35.2993 22.9141C35.7165 23.0591 36.0668 22.8187 36.0817 22.3772L36.3524 14.3257C36.3673 13.8842 36.041 13.4087 35.6238 13.2637ZM41.323 15.1268C40.9195 14.9866 40.5761 15.2069 40.5434 15.627L39.879 24.1616C39.8441 24.6096 40.1745 25.109 40.6049 25.2586C41.0083 25.3988 41.3518 25.1784 41.3845 24.7584L42.0488 16.2237C42.0837 15.7757 41.7533 15.2763 41.323 15.1268ZM46.753 17.5904C46.8046 17.1963 47.1387 16.9984 47.5255 17.1328C47.9698 17.2872 48.3036 17.8136 48.2444 18.2663L46.9348 28.2705C46.8833 28.6645 46.5492 28.8625 46.1624 28.7281C45.7181 28.5736 45.3843 28.0473 45.4435 27.5945L46.753 17.5904Z" fill="#148022"/>
<path fill-rule="evenodd" clip-rule="evenodd" d="M51.6531 32.1218L55.6606 17.2672C56.5035 16.5734 55.5883 16.2248 55.1979 16.0761C55.1457 16.0562 55.1029 16.0399 55.0749 16.0268C51.2979 14.975 45.3113 13.3053 40.6035 11.9923L40.6031 11.9922C36.9603 10.9762 34.0833 10.1738 33.5884 10.0366C32.454 9.72191 31.5847 9.90545 31.3072 10.0366L15.9246 13.788L20.2712 27.4325C23.323 26.0811 29.6426 23.2453 30.5057 22.7129C31.3689 22.1804 32.715 22.491 33.2802 22.7129L51.6531 32.1218ZM27.3024 13.3532C26.9018 13.4368 26.6306 13.8172 26.6818 14.2236L27.7334 22.563C27.7899 23.0106 28.2123 23.3124 28.6535 23.2203C29.0542 23.1367 29.3254 22.7564 29.2742 22.35L28.2226 14.0105C28.1661 13.5629 27.7437 13.2612 27.3024 13.3532ZM22.2988 14.4321C21.877 14.5201 21.6022 14.9342 21.6851 15.357L23.4807 24.5168C23.5636 24.9396 23.9727 25.211 24.3945 25.123C24.8163 25.035 25.0911 24.6209 25.0082 24.1981L23.2126 15.0384C23.1297 14.6156 22.7205 14.3441 22.2988 14.4321ZM35.6238 13.2637C35.2065 13.1187 34.8562 13.359 34.8413 13.8005L34.5706 21.8521C34.5558 22.2936 34.882 22.769 35.2993 22.9141C35.7165 23.0591 36.0668 22.8187 36.0817 22.3772L36.3524 14.3257C36.3673 13.8842 36.041 13.4087 35.6238 13.2637ZM41.323 15.1268C40.9195 14.9866 40.5761 15.2069 40.5434 15.627L39.879 24.1616C39.8441 24.6096 40.1745 25.109 40.6049 25.2586C41.0083 25.3988 41.3518 25.1784 41.3845 24.7584L42.0488 16.2237C42.0837 15.7757 41.7533 15.2763 41.323 15.1268ZM46.753 17.5904C46.8046 17.1963 47.1387 16.9984 47.5255 17.1328C47.9698 17.2872 48.3036 17.8136 48.2444 18.2663L46.9348 28.2705C46.8833 28.6645 46.5492 28.8625 46.1624 28.7281C45.7181 28.5736 45.3843 28.0473 45.4435 27.5945L46.753 17.5904Z" fill="url(#paint0_linear)"/>
<g filter="url(#filter1_f)">
<line y1="-0.0349569" x2="12.1021" y2="-0.0349569" transform="matrix(0.010189 0.999948 -0.999952 0.00981356 32.0167 10.1568)" stroke="white" stroke-width="0.0699138"/>
</g>
<path fill-rule="evenodd" clip-rule="evenodd" d="M16.2511 15.9445C15.5935 15.6056 15.2002 15.403 15.1237 14.8772C15.1128 14.8023 15.1002 14.727 15.0876 14.652C14.9936 14.0908 14.9027 13.5477 15.5553 13.3342C16.1472 13.1406 25.9132 10.9543 30.7222 9.88531C31.1435 9.76429 32.2697 9.59487 33.4041 9.88531C34.5386 10.1757 47.4613 13.6973 53.7808 15.4217L55.9387 16.0268C56.3394 16.168 57.1101 16.6379 56.9868 17.3882L56.9789 17.4365C56.8313 18.3356 56.7868 18.6068 55.9387 19.0824C55.2482 19.4697 45.6219 24.3466 40.9259 26.7064C40.1347 27.0997 38.0713 27.6503 36.1477 26.7064C34.744 26.0176 28.0675 22.3762 22.3451 19.2552C20.2257 18.0993 18.2372 17.0148 16.6959 16.1781C16.5365 16.0915 16.388 16.0151 16.2511 15.9445ZM16.4804 14.0303C20.7468 16.136 31.4315 21.4223 36.2405 23.8023C36.857 24.1754 38.4601 24.7704 39.9398 24.1653C41.4194 23.5602 50.832 19.1936 55.3533 17.0859C55.7129 16.9347 56.1671 16.5595 55.1066 16.2691C54.7507 16.1716 53.0786 15.701 50.8074 15.0618C44.6213 13.3208 33.9907 10.329 33.4044 10.2183C32.6029 10.0671 31.7398 10.0065 31.0924 10.2183C30.5745 10.3877 21.3613 12.5277 16.8195 13.5765C16.7832 13.5849 16.745 13.5932 16.7063 13.6016C16.3505 13.679 15.9466 13.7668 16.4804 14.0303Z" fill="#37B44E"/>
<path fill-rule="evenodd" clip-rule="evenodd" d="M16.2511 15.9445C15.5935 15.6056 15.2002 15.403 15.1237 14.8772C15.1128 14.8023 15.1002 14.727 15.0876 14.652C14.9936 14.0908 14.9027 13.5477 15.5553 13.3342C16.1472 13.1406 25.9132 10.9543 30.7222 9.88531C31.1435 9.76429 32.2697 9.59487 33.4041 9.88531C34.5386 10.1757 47.4613 13.6973 53.7808 15.4217L55.9387 16.0268C56.3394 16.168 57.1101 16.6379 56.9868 17.3882L56.9789 17.4365C56.8313 18.3356 56.7868 18.6068 55.9387 19.0824C55.2482 19.4697 45.6219 24.3466 40.9259 26.7064C40.1347 27.0997 38.0713 27.6503 36.1477 26.7064C34.744 26.0176 28.0675 22.3762 22.3451 19.2552C20.2257 18.0993 18.2372 17.0148 16.6959 16.1781C16.5365 16.0915 16.388 16.0151 16.2511 15.9445ZM16.4804 14.0303C20.7468 16.136 31.4315 21.4223 36.2405 23.8023C36.857 24.1754 38.4601 24.7704 39.9398 24.1653C41.4194 23.5602 50.832 19.1936 55.3533 17.0859C55.7129 16.9347 56.1671 16.5595 55.1066 16.2691C54.7507 16.1716 53.0786 15.701 50.8074 15.0618C44.6213 13.3208 33.9907 10.329 33.4044 10.2183C32.6029 10.0671 31.7398 10.0065 31.0924 10.2183C30.5745 10.3877 21.3613 12.5277 16.8195 13.5765C16.7832 13.5849 16.745 13.5932 16.7063 13.6016C16.3505 13.679 15.9466 13.7668 16.4804 14.0303Z" fill="url(#paint1_radial)"/>
<path fill-rule="evenodd" clip-rule="evenodd" d="M16.6339 16.0863L19.4699 26.1911C19.5419 26.5945 19.9262 27.5707 20.888 28.2483C21.8498 28.926 31.6466 36.2353 36.4248 39.8053L37.4421 40.5919C37.7915 40.965 38.8293 41.4874 40.1857 40.5919C41.5421 39.6964 48.1699 34.9949 51.3143 32.7561C51.5095 32.625 51.9493 32.0664 52.1466 30.8804C52.3817 29.9573 53.2149 26.8048 54.0045 23.8171C54.457 22.1049 54.8952 20.4468 55.1985 19.2932L41.388 26.4634C40.4837 27.0079 38.0956 27.7703 35.7774 26.4634C34.4902 25.77 32.0387 24.4373 29.2314 22.9111C24.8854 20.5485 19.6866 17.7222 16.6339 16.0863ZM19.9236 18.0644C19.6684 17.9392 19.5504 18.1118 19.6318 18.4912L21.4296 26.8734C21.5562 27.4635 22.0906 28.2649 22.4874 28.4597C22.7425 28.5849 22.8605 28.4123 22.7791 28.0328L20.9813 19.6507C20.8547 19.0606 20.3204 18.2592 19.9236 18.0644ZM34.9103 26.4528C34.4525 26.1934 34.1282 26.3833 34.169 26.8868L34.9849 36.9408C35.0297 37.4927 35.4926 38.2009 35.9945 38.4853C36.4523 38.7447 36.7766 38.5548 36.7358 38.0513L35.9199 27.9973C35.8751 27.4454 35.4122 26.7372 34.9103 26.4528ZM26.1494 22.5022C26.0544 21.9299 26.3856 21.6865 26.8791 21.9661C27.3464 22.2309 27.7873 22.8691 27.8773 23.4112L29.4061 32.6164C29.5012 33.1886 29.1699 33.432 28.6765 33.1524C28.2091 32.8876 27.7683 32.2494 27.6782 31.7074L26.1494 22.5022ZM45.3777 24.96C44.9315 25.138 44.5424 25.664 44.498 26.1492L43.5769 36.2202C43.5303 36.7293 43.8799 36.9967 44.348 36.81C44.7942 36.632 45.1833 36.106 45.2277 35.6208L46.1488 25.5498C46.1954 25.0407 45.8458 24.7733 45.3777 24.96ZM50.054 23.1551C50.1135 22.7156 50.4927 22.2318 50.9038 22.0709C51.3205 21.9077 51.6111 22.138 51.5507 22.5834L50.269 32.0423C50.2095 32.4818 49.8303 32.9655 49.4192 33.1265C49.0025 33.2896 48.7119 33.0594 48.7723 32.614L50.054 23.1551Z" fill="#B43737"/>
<path fill-rule="evenodd" clip-rule="evenodd" d="M16.6339 16.0863L19.4699 26.1911C19.5419 26.5945 19.9262 27.5707 20.888 28.2483C21.8498 28.926 31.6466 36.2353 36.4248 39.8053L37.4421 40.5919C37.7915 40.965 38.8293 41.4874 40.1857 40.5919C41.5421 39.6964 48.1699 34.9949 51.3143 32.7561C51.5095 32.625 51.9493 32.0664 52.1466 30.8804C52.3817 29.9573 53.2149 26.8048 54.0045 23.8171C54.457 22.1049 54.8952 20.4468 55.1985 19.2932L41.388 26.4634C40.4837 27.0079 38.0956 27.7703 35.7774 26.4634C34.4902 25.77 32.0387 24.4373 29.2314 22.9111C24.8854 20.5485 19.6866 17.7222 16.6339 16.0863ZM19.9236 18.0644C19.6684 17.9392 19.5504 18.1118 19.6318 18.4912L21.4296 26.8734C21.5562 27.4635 22.0906 28.2649 22.4874 28.4597C22.7425 28.5849 22.8605 28.4123 22.7791 28.0328L20.9813 19.6507C20.8547 19.0606 20.3204 18.2592 19.9236 18.0644ZM34.9103 26.4528C34.4525 26.1934 34.1282 26.3833 34.169 26.8868L34.9849 36.9408C35.0297 37.4927 35.4926 38.2009 35.9945 38.4853C36.4523 38.7447 36.7766 38.5548 36.7358 38.0513L35.9199 27.9973C35.8751 27.4454 35.4122 26.7372 34.9103 26.4528ZM26.1494 22.5022C26.0544 21.9299 26.3856 21.6865 26.8791 21.9661C27.3464 22.2309 27.7873 22.8691 27.8773 23.4112L29.4061 32.6164C29.5012 33.1886 29.1699 33.432 28.6765 33.1524C28.2091 32.8876 27.7683 32.2494 27.6782 31.7074L26.1494 22.5022ZM45.3777 24.96C44.9315 25.138 44.5424 25.664 44.498 26.1492L43.5769 36.2202C43.5303 36.7293 43.8799 36.9967 44.348 36.81C44.7942 36.632 45.1833 36.106 45.2277 35.6208L46.1488 25.5498C46.1954 25.0407 45.8458 24.7733 45.3777 24.96ZM50.054 23.1551C50.1135 22.7156 50.4927 22.2318 50.9038 22.0709C51.3205 21.9077 51.6111 22.138 51.5507 22.5834L50.269 32.0423C50.2095 32.4818 49.8303 32.9655 49.4192 33.1265C49.0025 33.2896 48.7119 33.0594 48.7723 32.614L50.054 23.1551Z" fill="url(#paint2_linear)"/>
<path fill-rule="evenodd" clip-rule="evenodd" d="M16.6339 16.0863L19.4699 26.1911C19.5419 26.5945 19.9262 27.5707 20.888 28.2483C21.8498 28.926 31.6466 36.2353 36.4248 39.8053L37.4421 40.5919C37.7915 40.965 38.8293 41.4874 40.1857 40.5919C41.5421 39.6964 48.1699 34.9949 51.3143 32.7561C51.5095 32.625 51.9493 32.0664 52.1466 30.8804C52.3817 29.9573 53.2149 26.8048 54.0045 23.8171C54.457 22.1049 54.8952 20.4468 55.1985 19.2932L41.388 26.4634C40.4837 27.0079 38.0956 27.7703 35.7774 26.4634C34.4902 25.77 32.0387 24.4373 29.2314 22.9111C24.8854 20.5485 19.6866 17.7222 16.6339 16.0863ZM19.9236 18.0644C19.6684 17.9392 19.5504 18.1118 19.6318 18.4912L21.4296 26.8734C21.5562 27.4635 22.0906 28.2649 22.4874 28.4597C22.7425 28.5849 22.8605 28.4123 22.7791 28.0328L20.9813 19.6507C20.8547 19.0606 20.3204 18.2592 19.9236 18.0644ZM34.9103 26.4528C34.4525 26.1934 34.1282 26.3833 34.169 26.8868L34.9849 36.9408C35.0297 37.4927 35.4926 38.2009 35.9945 38.4853C36.4523 38.7447 36.7766 38.5548 36.7358 38.0513L35.9199 27.9973C35.8751 27.4454 35.4122 26.7372 34.9103 26.4528ZM26.1494 22.5022C26.0544 21.9299 26.3856 21.6865 26.8791 21.9661C27.3464 22.2309 27.7873 22.8691 27.8773 23.4112L29.4061 32.6164C29.5012 33.1886 29.1699 33.432 28.6765 33.1524C28.2091 32.8876 27.7683 32.2494 27.6782 31.7074L26.1494 22.5022ZM45.3777 24.96C44.9315 25.138 44.5424 25.664 44.498 26.1492L43.5769 36.2202C43.5303 36.7293 43.8799 36.9967 44.348 36.81C44.7942 36.632 45.1833 36.106 45.2277 35.6208L46.1488 25.5498C46.1954 25.0407 45.8458 24.7733 45.3777 24.96ZM50.054 23.1551C50.1135 22.7156 50.4927 22.2318 50.9038 22.0709C51.3205 21.9077 51.6111 22.138 51.5507 22.5834L50.269 32.0423C50.2095 32.4818 49.8303 32.9655 49.4192 33.1265C49.0025 33.2896 48.7119 33.0594 48.7723 32.614L50.054 23.1551Z" fill="url(#paint3_linear)"/>
<g filter="url(#filter2_i)">
<path d="M19.4699 26.1911L16.6339 16.0863C21.6587 18.7789 32.4974 24.6965 35.7774 26.4634C38.0956 27.7703 40.4837 27.0079 41.388 26.4634L55.1985 19.2932C54.3661 22.4598 52.5165 29.4282 52.1466 30.8804C51.9493 32.0664 51.5095 32.625 51.3143 32.7561C48.1699 34.9949 41.5421 39.6964 40.1857 40.5919C38.8293 41.4874 37.7915 40.965 37.4421 40.5919L36.4248 39.8053C31.6466 36.2353 21.8498 28.926 20.888 28.2483C19.9262 27.5707 19.5419 26.5945 19.4699 26.1911Z" fill="#B43737" fill-opacity="0.01"/>
</g>
<g filter="url(#filter3_f)">
<path d="M15.0001 13.9687C21.4614 17.1877 31.5439 22.2481 35.7775 24.376C36.5893 24.86 38.817 25.5377 41.2339 24.376C43.6507 23.2142 52.8865 18.9606 56.9248 17.0848" stroke="white" stroke-width="0.139828"/>
</g>
<path d="M40.9874 4.95339C41.0368 3.33179 40.3503 2.7247 40.001 2.62385C42.1465 2.45443 42.724 4.10629 42.7446 4.95339C42.6624 7.70648 42.4918 13.3639 42.4671 13.969C42.4363 14.7254 40.7717 14.4228 40.7717 13.5455C40.7717 12.6681 40.9258 6.98039 40.9874 4.95339Z" fill="#1F1F1F"/>
<path d="M24.9876 8.52319L25.7891 18.6582L24.371 17.9321C24.3505 17.6497 24.1553 16.3589 23.9086 13.4848C23.6221 10.1457 22.3673 5.40355 25.4192 4.1364C27.0222 3.47081 29.7966 2.80157 34.2357 2.29092C42.6515 1.3228 42.2815 2.9565 42.6823 4.46919C42.3124 3.22879 41.6033 2.80523 39.9695 2.59346C38.3357 2.38168 29.9507 3.92462 27.7004 4.46919C25.45 5.01376 24.9876 6.64746 24.9876 8.52319Z" fill="#5B5B5B"/>
<path d="M24.9876 8.52319L25.7891 18.6582L24.371 17.9321C24.3505 17.6497 24.1553 16.3589 23.9086 13.4848C23.6221 10.1457 22.3673 5.40355 25.4192 4.1364C27.0222 3.47081 29.7966 2.80157 34.2357 2.29092C42.6515 1.3228 42.2815 2.9565 42.6823 4.46919C42.3124 3.22879 41.6033 2.80523 39.9695 2.59346C38.3357 2.38168 29.9507 3.92462 27.7004 4.46919C25.45 5.01376 24.9876 6.64746 24.9876 8.52319Z" fill="url(#paint4_linear)"/>
<defs>
<filter id="filter0_f" x="14.26" y="14.8427" width="43.2747" height="31.3192" filterUnits="userSpaceOnUse" color-interpolation-filters="sRGB">
<feFlood flood-opacity="0" result="BackgroundImageFix"/>
<feBlend mode="normal" in="SourceGraphic" in2="BackgroundImageFix" result="shape"/>
<feGaussianBlur stdDeviation="2.08092" result="effect1_foregroundBlur"/>
</filter>
<filter id="filter1_f" x="26.1439" y="4.28334" width="11.9387" height="23.8477" filterUnits="userSpaceOnUse" color-interpolation-filters="sRGB">
<feFlood flood-opacity="0" result="BackgroundImageFix"/>
<feBlend mode="normal" in="SourceGraphic" in2="BackgroundImageFix" result="shape"/>
<feGaussianBlur stdDeviation="2.93638" result="effect1_foregroundBlur"/>
</filter>
<filter id="filter2_i" x="16.6339" y="16.0863" width="38.5646" height="28.0762" filterUnits="userSpaceOnUse" color-interpolation-filters="sRGB">
<feFlood flood-opacity="0" result="BackgroundImageFix"/>
<feBlend mode="normal" in="SourceGraphic" in2="BackgroundImageFix" result="shape"/>
<feColorMatrix in="SourceAlpha" type="matrix" values="0 0 0 0 0 0 0 0 0 0 0 0 0 0 0 0 0 0 127 0" result="hardAlpha"/>
<feOffset dy="3.07621"/>
<feGaussianBlur stdDeviation="1.81776"/>
<feComposite in2="hardAlpha" operator="arithmetic" k2="-1" k3="1"/>
<feColorMatrix type="matrix" values="0 0 0 0 0 0 0 0 0 0 0 0 0 0 0 0 0 0 0.37 0"/>
<feBlend mode="normal" in2="shape" result="effect1_innerShadow"/>
</filter>
<filter id="filter3_f" x="14.4795" y="13.4167" width="42.9642" height="12.1601" filterUnits="userSpaceOnUse" color-interpolation-filters="sRGB">
<feFlood flood-opacity="0" result="BackgroundImageFix"/>
<feBlend mode="normal" in="SourceGraphic" in2="BackgroundImageFix" result="shape"/>
<feGaussianBlur stdDeviation="0.244698" result="effect1_foregroundBlur"/>
</filter>
<linearGradient id="paint0_linear" x1="38.2741" y1="27.0392" x2="37.8288" y2="13.0916" gradientUnits="userSpaceOnUse">
<stop stop-color="#0D6F1A"/>
<stop offset="1" stop-color="#109721"/>
</linearGradient>
<radialGradient id="paint1_radial" cx="0" cy="0" r="1" gradientUnits="userSpaceOnUse" gradientTransform="translate(37.9974 27.7955) rotate(-109.094) scale(23.371 56.6223)">
<stop stop-color="#37B44E"/>
<stop offset="1" stop-color="#148022"/>
</radialGradient>
<linearGradient id="paint2_linear" x1="43.9903" y1="34.6387" x2="34.4194" y2="35.1096" gradientUnits="userSpaceOnUse">
<stop stop-color="#37B44E"/>
<stop offset="0.510417" stop-color="#73EE89"/>
<stop offset="1" stop-color="#37B44E"/>
</linearGradient>
<linearGradient id="paint3_linear" x1="27.9998" y1="20.5796" x2="31.8552" y2="48.0789" gradientUnits="userSpaceOnUse">
<stop stop-color="#278939"/>
<stop offset="1" stop-color="#11531D" stop-opacity="0"/>
</linearGradient>
<linearGradient id="paint4_linear" x1="38.9522" y1="4.9835" x2="31.081" y2="16.7385" gradientUnits="userSpaceOnUse">
<stop stop-color="#353232"/>
<stop offset="1" stop-color="#5E5E5E"/>
</linearGradient>
</defs>
</svg>