<svg xmlns="http://www.w3.org/2000/svg" width="400" height="79" fill-rule="evenodd" fill="#18aa33" xmlns:v="https://vecta.io/nano"><path d="M116.567 77.722v-7.243c-4.124 5.237-10.808 7.913-19.279 7.913-12.817 0-20.841-7.913-20.841-18.499 0-11.033 8.134-17.83 22.624-17.942h17.386v-1.56c0-6.91-4.569-11.033-13.485-11.033-5.572 0-11.589 1.894-17.72 5.57L80.015 24.9c8.581-4.793 15.268-7.354 26.189-7.354 15.601 0 24.407 7.91 24.516 21.17l.114 39.005h-14.266zm-.11-20.729v-3.97h-15.045c-7.689 0-11.258 1.538-11.258 5.976 0 5.014 4.014 8.246 10.588 8.246 8.358 0 14.933-4.457 15.714-10.253h0zm58.729-39.449v14.042c-12.593-.78-20.282 6.574-20.282 17.383v28.752h-14.486v-59.62h14.486V29.58c4.01-7.8 11.03-11.926 20.282-12.036m32.763.11c-17.832 0-30.312 12.259-30.312 30.425 0 17.942 12.144 30.199 30.646 30.199 10.474 0 19.169-3.79 25.075-10.253l-7.802-8.134c-4.234 4.344-9.917 6.686-16.046 6.686-8.693 0-15.156-5.126-17.05-13.596h44.016c1.452-21.619-7.577-35.328-28.526-35.328m.11 11.258c8.558 0 14.302 5.014 15.161 13.034h-30.842c1.721-8.021 7.548-13.034 15.682-13.034m65.859-11.257c-17.832 0-30.312 12.259-30.312 30.425 0 17.942 12.146 30.199 30.646 30.199 10.476 0 19.169-3.79 25.075-10.253l-7.802-8.134c-4.234 4.344-9.917 6.686-16.046 6.686-8.693 0-15.154-5.126-17.05-13.596h44.018c1.45-21.619-7.579-35.328-28.529-35.328m.113 11.258c8.556 0 14.299 5.014 15.158 13.034h-30.84c1.721-8.021 7.546-13.034 15.682-13.034m125.522 11.923v37.219h-14.599V45.067c0-8.467-4.428-13.596-10.027-13.596-8.347 0-12.557 7.469-12.557 17.162v29.419h-14.599V45.067c0-8.467-4.91-13.596-10.776-13.596-9.559 0-11.926 7.469-11.926 17.162v29.419h-14.484V18.434h14.484l.046 9.583c3.816-6.283 9.485-10.044 17.042-10.14 9.336 0 15.718 6.233 17.544 11.926 5.724-9.043 11.448-11.926 20.486-11.926 12.019 0 19.366 8.803 19.366 22.956M39.953 78.785C17.921 78.785 0 60.862 0 38.83h15.205c0 13.649 11.103 24.749 24.748 24.749 4.363 0 8.649-1.147 12.395-3.319a24.86 24.86 0 0 0 6.558-5.513l11.635 9.79c-2.994 3.557-6.547 6.545-10.564 8.873a39.95 39.95 0 0 1-20.024 5.376"/><path d="M58.899 22.906c-3.381-4.015-8.028-6.9-13.085-8.129L49.396 0c8.183 1.985 15.687 6.643 21.136 13.114l-11.633 9.792M31.394 14.23c0 6.281-5.09 11.371-11.371 11.371A11.37 11.37 0 0 1 8.654 14.23c0-6.28 5.092-11.372 11.369-11.372s11.371 5.09 11.371 11.371"/></svg>